<svg xmlns="http://www.w3.org/2000/svg" xmlns:xlink="http://www.w3.org/1999/xlink" version="1.1" style="" xml:space="preserve" width="887" height="307"><rect id="backgroundrect" width="100%" height="100%" x="0" y="0" fill="none" stroke="none"/>
<style type="text/css">
	.st0{fill:#ffffff;}
</style>

<g class="currentLayer" style=""><title>Layer 1</title><g id="logo" class="">
	<path class="st0" d="M395.0000061035156,197.90000305175784 V35.0000030517578 c0,-19.3 -15.7,-35 -35,-35 h-325 c-19.3,0 -35,15.7 -35,35 v162.9 c0,19.3 15.7,35 35,35 H85.60000610351562 c0.5,0 0.9,0.4 0.9,0.9 l0,61.7 c0,2.9 1.2,5.8 3.3,7.8 c5.6,5.3 13.2,4.6 17.7,0.1 l70.2,-70.2 c0.2,-0.2 0.4,-0.30000000000000004 0.6000000000000001,-0.30000000000000004 h181.7 C379.3000061035156,232.90000305175784 395.0000061035156,217.2000030517578 395.0000061035156,197.90000305175784 zM145.00000610351563,196.10000305175782 c-6.5,0 -10.4,-3.3 -14.1,-8.1 L87.90000610351562,131.8000030517578 c-0.30000000000000004,-0.4 -0.9,-0.5 -1.3,-0.1 l-18.2,16.9 c-0.2,0.2 -0.30000000000000004,0.4 -0.30000000000000004,0.6000000000000001 v31.4 c0,5.8 -3.3,11.2 -8.7,13.6 c-12.8,5.8 -24.8,-3 -24.8,-14.9 V58.0000030517578 c0,-11.9 12.1,-20.7 24.8,-14.9 c5.3,2.4 8.7,7.8 8.7,13.6 v50.3 c0,0.8 0.9,1.2 1.5,0.6000000000000001 l60.3,-59.9 c4.1,-4.1 8.3,-6.5 14.1,-6.5 c9.4,0 15.4,7.2 15.4,15.4 c0,5.2 -2.4,9.1 -6.1,12.6 L111.20000610351562,108.80000305175781 c-0.30000000000000004,0.30000000000000004 -0.4,0.8 -0.1,1.2 l46.3,58.1 c2.6,3.3 4.6,6.7 4.6,11.7 C162.00000610351563,189.2000030517578 154.8000061035156,196.10000305175782 145.00000610351563,196.10000305175782 zM216.3000061035156,180.8000030517578 c0,5.5 -3,10.6 -7.9,13.1 c-12.6,6.5 -25.2,-2.4 -25.2,-14.3 v-86.2 c0,-11.9 12.6,-20.9 25.2,-14.3 c4.9,2.5 7.9,7.6 7.9,13.1 V180.8000030517578 zM218.3000061035156,50.80000305175781 c0,9.6 -8.1,15.7 -18.5,15.7 c-10.4,0 -18.5,-6.1 -18.5,-15.7 v-0.4 c0,-9.6 8,-15.4 18.5,-15.4 c10.4,0 18.5,5.9 18.5,15.4 V50.80000305175781 zM360.40000610351564,179.60000305175782 c0,11.9 -12.6,20.9 -25.2,14.3 c-4.9,-2.5 -7.9,-7.6 -7.9,-13.1 v-0.1 c0,-0.8 -1,-1.2 -1.6,-0.5 c-7.9,9.8 -18.7,16.9 -34.8,16.9 c-27.2,0 -53.1,-21.3 -53.1,-60.3 v-0.4 c0,-38.9 25.5,-60.3 53.1,-60.3 c16.5,0 27.1,7.1 34.8,15.7 c0.5,0.6000000000000001 1.5,0.2 1.5,-0.6000000000000001 v-41.1 c0,-5.5 3,-10.6 7.9,-13.1 c12.6,-6.5 25.2,2.4 25.2,14.3 V179.60000305175782 z" id="svg_1"/>
	<path class="st0" d="M299.5000061035156,104.10000305175782 c-15.4,0 -28.5,12.6 -28.5,32.2 v0.4 c0,19.4 13.1,32.2 28.5,32.2 c15.4,0 28.3,-12.8 28.3,-32.2 v-0.4 C327.70000610351565,116.90000305175784 314.90000610351564,104.10000305175782 299.5000061035156,104.10000305175782 z" id="svg_2"/>
	<path class="st0" d="M450.20000610351565,194.3000030517578 c5.3,-2.4 8.7,-7.8 8.7,-13.6 v-31.4 c0,-0.2 0.1,-0.5 0.30000000000000004,-0.6000000000000001 l18.2,-16.9 c0.4,-0.4 1,-0.30000000000000004 1.3,0.1 l42.9,56.2 c3.7,4.8 7.6,8.1 14.1,8.1 c9.8,0 17,-7 17,-16.3 c0,-5 -2,-8.5 -4.6,-11.7 l-46.3,-58.1 c-0.30000000000000004,-0.4 -0.2,-0.9 0.1,-1.2 l42.3,-39.5 c3.7,-3.5 6.1,-7.4 6.1,-12.6 c0,-8.3 -6.1,-15.4 -15.4,-15.4 c-5.9,0 -10,2.4 -14.1,6.5 l-60.3,59.9 c-0.6000000000000001,0.5 -1.5,0.2 -1.5,-0.6000000000000001 v-50.3 c0,-5.8 -3.3,-11.2 -8.7,-13.6 c-12.8,-5.8 -24.8,3 -24.8,14.9 v121.4 C425.3000061035156,191.3000030517578 437.40000610351564,200.10000305175782 450.20000610351565,194.3000030517578 z" id="svg_3"/>
	<path class="st0" d="M603.5000061035156,79.10000305175782 c-12.6,-6.5 -25.2,2.4 -25.2,14.3 v86.2 c0,11.9 12.6,20.9 25.2,14.3 c4.9,-2.5 7.9,-7.6 7.9,-13.1 v-88.5 C611.3000061035157,86.80000305175781 608.3000061035157,81.60000305175782 603.5000061035156,79.10000305175782 z" id="svg_4"/>
	<path class="st0" d="M594.8000061035157,66.5000030517578 c10.4,0 18.5,-6.1 18.5,-15.7 v-0.4 c0,-9.6 -8.1,-15.4 -18.5,-15.4 c-10.4,0 -18.5,5.9 -18.5,15.4 v0.4 C576.3000061035157,60.40000305175781 584.4000061035156,66.5000030517578 594.8000061035157,66.5000030517578 z" id="svg_5"/>
	<path class="st0" d="M686.0000061035156,197.0000030517578 c16.1,0 26.9,-7.1 34.8,-16.9 c0.5,-0.6000000000000001 1.6,-0.30000000000000004 1.6,0.5 v0.1 c0,5.5 3,10.6 7.9,13.1 c12.6,6.5 25.2,-2.4 25.2,-14.3 V51.20000305175782 c0,-11.9 -12.6,-20.9 -25.2,-14.3 c-4.9,2.5 -7.9,7.6 -7.9,13.1 v41.1 c0,0.8 -1,1.2 -1.5,0.6000000000000001 c-7.7,-8.6 -18.3,-15.7 -34.8,-15.7 c-27.6,0 -53.1,21.3 -53.1,60.3 v0.4 C632.9000061035156,175.7000030517578 658.8000061035157,197.0000030517578 686.0000061035156,197.0000030517578 zM666.0000061035156,136.3000030517578 c0,-19.6 13.1,-32.2 28.5,-32.2 c15.4,0 28.3,12.8 28.3,32.2 v0.4 c0,19.4 -12.8,32.2 -28.3,32.2 c-15.4,0 -28.5,-12.8 -28.5,-32.2 V136.3000030517578 z" id="svg_6"/>
	<path class="st0" d="M819.3000061035157,197.0000030517578 c15.6,0 25.2,-7.8 32.6,-16.8 c0.5,-0.6000000000000001 1.5,-0.30000000000000004 1.5,0.6000000000000001 l0,0 c0,5.5 3,10.6 7.9,13.1 c12.6,6.5 25.2,-2.4 25.2,-14.3 v-86.2 c0,-11.9 -12.6,-20.9 -25.2,-14.3 c-4.9,2.5 -7.9,7.6 -7.9,13.1 v51 c0,15.7 -8,23.7 -20.7,23.7 s-20,-8.1 -20,-23.7 v-49.8 c0,-11.9 -12.6,-20.9 -25.2,-14.3 c-4.9,2.5 -7.9,7.6 -7.9,13.1 v61.5 C779.7000061035156,180.5000030517578 794.3000061035157,197.0000030517578 819.3000061035157,197.0000030517578 z" id="svg_7"/>
</g></g></svg>