<svg xmlns="http://www.w3.org/2000/svg" width="32" height="27" viewBox="0 0 32 27">
    <path fill="#00AAF2" fill-rule="nonzero" d="M29.897 15.858c-.494-.678-.723-1.506-.722-2.343V13.5c0-7.456-6.088-13.5-13.598-13.5-1.643 0-3.217.29-4.675.82a4.037 4.037 0 0 1-2.46.117 6.703 6.703 0 0 0-2.268-.23C2.854.934.18 3.635.009 6.934a6.53 6.53 0 0 0 1.248 4.208c.494.678.723 1.506.722 2.343v.015c0 7.456 6.088 13.5 13.598 13.5 1.643 0 3.217-.29 4.675-.82a4.037 4.037 0 0 1 2.46-.117c.715.2 1.478.284 2.268.23 3.32-.227 5.993-2.928 6.165-6.227a6.531 6.531 0 0 0-1.248-4.208zM16.075 11.08c2.742.647 6.885 1.625 6.885 6.156 0 2.232-1.107 3.935-3.118 4.795-1.435.613-3.058.696-4.458.696-4.3 0-7.015-3.32-7.129-3.46a2.02 2.02 0 0 1 .324-2.854c.883-.7 2.17-.555 2.875.321.006.008 1.63 1.86 3.93 1.932 2.77.087 3.403-.731 3.485-1.43.1-.853-.664-1.479-3.74-2.205-2.609-.616-6.55-1.547-6.55-5.72 0-1.299.532-5.539 7.383-5.539 4.325 0 6.878 3.381 6.985 3.525a2.021 2.021 0 0 1-.436 2.839 2.055 2.055 0 0 1-2.85-.42c-.049-.062-1.51-1.677-3.7-1.883-1.656-.156-3.292.437-3.292 1.313 0 .928.47 1.24 3.406 1.934z"/>
</svg>
