<svg xmlns="http://www.w3.org/2000/svg" width="27" height="27" viewBox="0 0 27 27">
    <path fill="#02BD2C" fill-rule="nonzero" d="M27 13.152c0 7.264-5.934 13.153-13.255 13.153-2.324 0-4.507-.594-6.407-1.637L0 27l2.393-7.057a13.014 13.014 0 0 1-1.902-6.79C.49 5.887 6.425 0 13.744 0 21.067 0 27 5.888 27 13.152zM13.745 2.095c-6.145 0-11.143 4.96-11.143 11.057 0 2.42.788 4.66 2.122 6.483l-1.392 4.107 4.283-1.361a11.137 11.137 0 0 0 6.13 1.829c6.145 0 11.145-4.96 11.145-11.057s-5-11.058-11.145-11.058zM20.44 16.18c-.082-.134-.299-.215-.623-.376-.325-.16-1.923-.941-2.22-1.048-.298-.108-.515-.162-.732.16-.216.324-.839 1.05-1.029 1.264-.19.216-.378.243-.704.082-.324-.161-1.37-.502-2.612-1.6-.966-.855-1.618-1.91-1.808-2.232-.189-.323-.02-.497.143-.658.146-.144.325-.376.488-.564.162-.189.216-.323.324-.538.109-.215.055-.403-.027-.565-.08-.161-.731-1.748-1.002-2.393-.27-.645-.54-.538-.73-.538-.19 0-.407-.027-.623-.027-.217 0-.57.08-.867.403-.298.323-1.137 1.103-1.137 2.69 0 1.586 1.164 3.118 1.327 3.333.162.215 2.247 3.576 5.55 4.867 3.303 1.29 3.303.86 3.899.806.595-.054 1.922-.78 2.193-1.532.27-.754.27-1.4.19-1.534z"/>
</svg>
